<?xml version="1.0" standalone="no"?>
<!DOCTYPE svg PUBLIC "-//W3C//DTD SVG 20010904//EN"
 "http://www.w3.org/TR/2001/REC-SVG-20010904/DTD/svg10.dtd">
<svg version="1.0" xmlns="http://www.w3.org/2000/svg"
 width="480.000000pt" height="480.000000pt" viewBox="0 0 480.000000 480.000000"
 preserveAspectRatio="xMidYMid meet">
<metadata>
Created by potrace 1.11, written by Peter Selinger 2001-2013
</metadata>
<g transform="translate(0.000000,480.000000) scale(0.100000,-0.100000)"
fill="#000000" stroke="none">
<path d="M2205 4449 c-365 -34 -749 -185 -1049 -412 -105 -79 -316 -290 -394
-393 -466 -620 -549 -1436 -218 -2129 430 -899 1449 -1367 2398 -1101 668 188
1187 678 1407 1332 217 642 101 1352 -312 1898 -78 104 -289 315 -393 393
-413 312 -929 460 -1439 412z m713 -350 c79 -19 204 -83 258 -132 102 -93 139
-175 158 -351 l11 -109 45 -16 c90 -32 201 -183 234 -321 40 -160 44 -306 16
-511 -11 -79 -22 -161 -25 -181 -3 -20 -13 -60 -24 -87 -21 -56 -21 -56 24
-40 26 10 36 9 60 -7 40 -26 55 -71 55 -167 0 -77 2 -85 26 -108 14 -13 45
-51 68 -84 64 -90 88 -148 112 -262 35 -169 -32 -338 -161 -406 -82 -43 -275
-18 -343 45 -13 13 -32 39 -43 59 -15 31 -16 42 -6 68 10 26 17 31 45 31 49 0
66 13 116 88 53 78 59 98 16 52 -21 -23 -36 -31 -56 -28 -46 5 -51 29 -26 105
12 37 35 125 52 195 37 160 48 186 94 223 70 56 97 85 91 95 -21 35 -99 -18
-145 -98 -19 -34 -38 -62 -42 -62 -11 0 -10 88 2 109 15 30 29 102 18 95 -9
-6 -27 12 -28 27 0 3 9 16 20 29 13 15 20 37 20 66 0 41 -1 43 -36 50 -42 8
-39 1 -90 196 -21 81 -40 146 -42 143 -2 -2 8 -50 22 -107 14 -57 28 -127 32
-157 6 -46 5 -53 -8 -49 -8 4 -40 9 -71 13 -55 7 -56 8 -51 35 5 22 0 31 -25
49 -99 71 -231 100 -380 83 -141 -16 -171 -34 -151 -86 11 -31 41 -40 83 -27
17 6 62 15 98 21 78 14 191 0 276 -32 56 -20 72 -43 26 -34 -104 20 -434 15
-401 -5 8 -6 0 -6 -20 -3 -18 4 -53 1 -78 -6 -35 -10 -51 -22 -76 -58 -30 -44
-31 -44 -76 -38 -24 3 -96 6 -158 6 l-113 0 -22 40 c-41 73 -137 97 -432 106
-109 4 -194 10 -190 14 26 24 122 42 226 43 94 2 124 -2 185 -22 64 -21 76
-22 98 -11 20 11 24 20 22 44 -3 34 9 31 -206 62 -140 20 -218 12 -307 -32
-60 -30 -80 -51 -63 -71 15 -19 6 -25 -45 -30 l-43 -5 -12 103 c-16 133 -15
184 3 293 8 49 13 91 11 94 -2 2 -7 -9 -10 -25 -22 -108 -29 -187 -30 -323
l-1 -155 -55 -10 -55 -11 -3 -41 c-2 -34 1 -44 17 -53 23 -12 27 -62 14 -170
-6 -48 -12 -60 -55 -103 -51 -51 -75 -57 -132 -32 -17 7 -17 6 -3 -21 21 -41
68 -226 78 -304 8 -73 -1 -138 -24 -174 -16 -24 -112 -76 -141 -76 -20 0 29
-69 107 -154 46 -49 58 -57 78 -51 38 11 78 55 85 92 7 39 8 39 56 48 36 7 37
6 53 -31 32 -76 31 -77 -34 -132 -71 -59 -119 -71 -203 -52 -214 49 -389 234
-418 439 -16 115 27 190 148 257 1 1 -15 37 -37 80 -70 141 -127 355 -116 438
17 133 88 201 204 194 44 -2 56 0 57 12 12 94 49 293 65 340 6 19 15 60 19 90
4 30 17 120 28 200 23 160 29 185 62 250 84 167 215 252 450 290 41 7 107 24
145 37 118 41 321 73 468 73 l88 0 31 36 c32 37 103 77 173 99 51 16 202 18
263 4z m-788 -1604 c96 -23 117 -34 130 -66 18 -42 8 -282 -13 -331 -17 -40
-68 -78 -104 -78 -13 0 -23 -3 -23 -7 0 -11 -269 -5 -405 7 -178 17 -219 35
-231 98 -8 43 5 67 37 67 32 0 73 70 49 85 -9 5 -19 5 -27 -2 -8 -6 -16 -9
-19 -6 -14 15 3 223 20 237 18 15 86 18 311 15 147 -2 229 -8 275 -19z m1169
-26 c95 -12 141 -30 141 -59 0 -10 5 -22 10 -25 12 -8 13 -234 1 -253 -6 -10
-10 -8 -14 9 -5 18 -9 21 -18 12 -13 -13 -4 -46 19 -69 14 -15 14 -19 1 -43
-27 -48 -70 -55 -334 -55 -386 -1 -410 12 -420 241 -5 97 -2 127 12 167 16 42
23 51 57 63 92 31 339 37 545 12z m-1812 -81 c-3 -8 -6 -5 -6 6 -1 11 2 17 5
13 3 -3 4 -12 1 -19z m1056 -25 l97 -6 -6 -76 c-7 -87 15 -211 44 -251 29 -40
98 -68 197 -79 163 -20 482 -11 549 15 18 7 18 3 12 -64 -16 -160 -85 -352
-178 -492 -110 -165 -199 -246 -367 -333 -53 -27 -123 -70 -156 -95 -33 -25
-94 -61 -135 -81 -71 -34 -81 -36 -176 -36 -96 0 -103 2 -175 37 -40 21 -103
63 -139 94 -36 30 -96 72 -135 91 -141 71 -256 172 -342 298 -82 121 -124 227
-157 390 -16 82 -38 276 -32 283 2 2 16 -8 30 -22 36 -32 92 -44 266 -56 441
-29 527 -4 566 165 10 44 18 113 18 153 l0 72 61 0 c33 0 104 -3 158 -7z
m-1134 -585 c12 -55 4 -80 -30 -99 -38 -20 -49 -5 -49 66 0 44 5 74 16 91 16
23 18 24 35 8 10 -9 23 -38 28 -66z"/>
<path d="M2825 3758 c-32 -17 -76 -61 -91 -90 -22 -42 -17 -41 23 3 48 53 87
72 134 66 109 -14 223 -115 289 -252 38 -79 68 -121 78 -110 7 6 -60 191 -84
231 -51 89 -176 164 -274 164 -30 0 -64 -6 -75 -12z"/>
<path d="M2860 3584 c-65 -28 -104 -77 -136 -168 -16 -43 -13 -42 29 16 31 43
137 98 186 98 41 0 87 -20 135 -59 21 -17 43 -31 48 -31 15 0 -19 54 -59 92
-66 64 -134 82 -203 52z"/>
<path d="M1565 3541 c-44 -20 -59 -35 -69 -68 -10 -31 16 -30 57 1 75 56 176
56 284 0 74 -38 79 -24 9 23 -90 61 -204 79 -281 44z"/>
<path d="M2786 3349 c-16 -5 -41 -20 -56 -34 -14 -14 -29 -22 -33 -18 -4 3 -7
0 -7 -8 0 -9 -7 -24 -16 -35 -14 -18 -15 -15 -10 41 l6 60 -15 -52 c-31 -110
-113 -226 -169 -238 -330 -70 -449 -46 -577 115 -84 104 -132 146 -183 159
-41 10 -52 9 -72 -4 -39 -25 -77 -112 -79 -177 -1 -32 -1 -58 1 -58 2 0 10 14
19 30 41 79 171 112 256 66 24 -14 92 -72 151 -130 91 -88 116 -108 160 -121
83 -26 202 -30 277 -10 112 29 156 67 217 188 67 132 122 186 207 202 21 4 36
9 35 11 -11 10 -88 19 -112 13z"/>
<path d="M3242 3313 c-28 -21 -37 -24 -60 -15 -15 6 -47 13 -72 17 l-45 6 50
-19 c28 -10 65 -26 83 -36 23 -12 32 -13 32 -4 0 6 12 24 27 40 35 37 26 44
-15 11z"/>
<path d="M1092 2223 c2 -21 13 -33 41 -46 55 -28 63 -17 22 31 -44 49 -68 55
-63 15z"/>
<path d="M1835 2420 c-76 -16 -125 -42 -165 -88 -38 -43 -50 -75 -32 -86 5 -3
16 9 26 25 18 31 99 89 123 89 9 0 7 -12 -8 -40 -27 -51 -23 -137 7 -177 24
-32 50 -44 41 -18 -4 9 -10 29 -14 43 -6 26 -5 26 35 -10 45 -41 79 -54 116
-44 33 8 86 54 98 85 l10 26 11 -23 c8 -17 8 -32 -1 -54 -9 -25 -9 -28 4 -18
21 19 37 89 30 140 l-6 44 41 -39 c22 -22 49 -56 59 -75 17 -30 19 -32 20 -12
1 63 -80 166 -162 208 -54 27 -166 39 -233 24z m56 -80 c45 -25 10 -81 -41
-65 -25 8 -27 50 -2 64 21 13 20 13 43 1z"/>
<path d="M2908 2386 c-83 -22 -160 -91 -194 -172 -23 -55 -11 -64 21 -16 15
23 32 42 36 42 5 0 9 -18 9 -40 0 -52 34 -118 66 -130 36 -14 36 -14 14 23
-28 46 -25 52 13 23 68 -52 161 -26 204 57 14 27 16 28 25 13 6 -10 8 -31 6
-47 -6 -38 0 -37 18 6 19 46 17 92 -6 143 -22 48 -15 51 45 22 47 -22 75 -46
99 -83 23 -34 36 -35 36 -2 0 31 -61 100 -112 126 -46 23 -150 49 -198 48 -19
0 -56 -6 -82 -13z m14 -91 c15 -34 -8 -61 -45 -51 -32 8 -39 28 -21 55 21 29
52 27 66 -4z"/>
<path d="M2710 2285 c-19 -23 -8 -25 14 -4 11 11 15 19 9 19 -6 0 -16 -7 -23
-15z"/>
<path d="M2687 1805 c-41 -106 -82 -127 -237 -122 -122 4 -166 23 -197 87
l-22 45 -1 -41 c-1 -137 223 -210 395 -129 50 24 77 73 73 132 -3 35 -6 43
-11 28z"/>
<path d="M2017 1523 c-9 -14 19 -67 53 -100 38 -37 48 -40 65 -17 10 15 23 15
132 4 66 -7 126 -11 134 -8 8 3 -24 8 -71 12 -138 11 -120 26 32 26 86 0 139
-4 143 -11 4 -6 19 -10 33 -9 15 1 36 1 47 0 17 -2 16 -3 -5 -10 -18 -6 -5 -8
45 -9 47 -1 78 -6 93 -17 19 -13 28 -14 51 -4 55 22 137 130 99 130 -7 0 -47
-8 -88 -17 -59 -13 -124 -17 -300 -17 -195 0 -239 3 -327 22 -56 12 -108 25
-116 28 -8 3 -17 2 -20 -3z"/>
<path d="M2468 1393 c12 -2 32 -2 45 0 12 2 2 4 -23 4 -25 0 -35 -2 -22 -4z"/>
<path d="M2240 1330 c0 -26 285 -43 355 -21 22 7 -6 10 -110 11 -77 1 -164 5
-192 9 -29 4 -53 4 -53 1z"/>
</g>
</svg>
